<mxfile host="Electron" modified="2023-05-29T14:36:32.725Z" agent="Mozilla/5.0 (Windows NT 10.0; Win64; x64) AppleWebKit/537.36 (KHTML, like Gecko) draw.io/21.2.8 Chrome/112.0.5615.165 Electron/24.2.0 Safari/537.36" etag="2YZL03BSblyPZP8slg-J" version="21.2.8" type="device">
  <diagram name="Seite-1" id="xasyzUOmvuQR7YCFwC_h">
    <mxGraphModel dx="1434" dy="836" grid="1" gridSize="10" guides="1" tooltips="1" connect="1" arrows="1" fold="1" page="1" pageScale="1" pageWidth="827" pageHeight="1169" math="0" shadow="0">
      <root>
        <mxCell id="0" />
        <mxCell id="1" parent="0" />
        <mxCell id="1xRSDjXhcW-Ug4CpaFJm-3" value="Nutzer EndgerÃ¤t" style="rounded=0;whiteSpace=wrap;html=1;verticalAlign=top;" vertex="1" parent="1">
          <mxGeometry x="60" y="140" width="230" height="140" as="geometry" />
        </mxCell>
        <mxCell id="1xRSDjXhcW-Ug4CpaFJm-4" value="&amp;lt;&amp;lt;Web Browser&amp;gt;&amp;gt;&lt;br&gt;Web Interface" style="rounded=0;whiteSpace=wrap;html=1;" vertex="1" parent="1">
          <mxGeometry x="115" y="180" width="120" height="60" as="geometry" />
        </mxCell>
        <mxCell id="1xRSDjXhcW-Ug4CpaFJm-5" value="Versicherungs Services" style="rounded=0;whiteSpace=wrap;html=1;verticalAlign=top;" vertex="1" parent="1">
          <mxGeometry x="510" y="140" width="230" height="140" as="geometry" />
        </mxCell>
        <mxCell id="1xRSDjXhcW-Ug4CpaFJm-6" value="&amp;lt;&amp;lt;service&amp;gt;&amp;gt;&lt;br&gt;UI-Service" style="rounded=0;whiteSpace=wrap;html=1;" vertex="1" parent="1">
          <mxGeometry x="565" y="180" width="120" height="60" as="geometry" />
        </mxCell>
        <mxCell id="1xRSDjXhcW-Ug4CpaFJm-7" value="internet/https" style="endArrow=classic;startArrow=classic;html=1;rounded=0;exitX=1;exitY=0.5;exitDx=0;exitDy=0;entryX=0;entryY=0.5;entryDx=0;entryDy=0;" edge="1" parent="1" source="1xRSDjXhcW-Ug4CpaFJm-3" target="1xRSDjXhcW-Ug4CpaFJm-6">
          <mxGeometry x="-0.1273" y="-10" width="50" height="50" relative="1" as="geometry">
            <mxPoint x="390" y="450" as="sourcePoint" />
            <mxPoint x="440" y="400" as="targetPoint" />
            <mxPoint as="offset" />
          </mxGeometry>
        </mxCell>
      </root>
    </mxGraphModel>
  </diagram>
</mxfile>
